<?xml version="1.0" encoding="utf-8"?>
<svg viewBox="0 0 32 32" width="64" height="64" xmlns="http://www.w3.org/2000/svg" xmlns:xlink="http://www.w3.org/1999/xlink">
  <defs>
    <radialGradient id="e" cx="321.34" cy="336.65" r="17.015" gradientUnits="userSpaceOnUse">
      <stop offset="0"/>
      <stop stop-opacity="0" offset="1"/>
    </radialGradient>
    <filter id="a" x="-.1158" y="-.11755" width="1.2316" height="1.2351">
      <feGaussianBlur stdDeviation="1.64196"/>
    </filter>
    <radialGradient id="d" cx="330.25" cy="345.22" r="17.015" gradientUnits="userSpaceOnUse" xlink:href="#b"/>
    <linearGradient id="b">
      <stop stop-color="#00a1ff" offset="0"/>
      <stop stop-color="#000001" offset="1"/>
    </linearGradient>
    <radialGradient id="c" cx="328.08" cy="353.08" r="17.015" gradientUnits="userSpaceOnUse" xlink:href="#b"/>
    <filter id="f" x="-.21811" y="-.2265" width="1.4362" height="1.453">
      <feGaussianBlur stdDeviation=".61965"/>
    </filter>
  </defs>
  <circle cx="16" cy="16" r="16" fill="#646366" transform="matrix(1, 0, 0, 1.0000000000000002, 0, 0)"/>
  <g transform="matrix(0.032707005739, 0.007400000934, -0.007037000265, 0.03110300377, -291.513047034011, -231.786838891823)" style="transform-origin: 307.205px 248.205px;">
    <defs/>
    <path d="m585.86 309.59c-38.302 136.21-194.11 219.16-348.01 185.25s-247.6-171.81-209.3-308.02 194.11-219.16 348.01-185.25 247.6 171.81 209.3 308.02z" fill="#fff"/>
    <path d="m425.64 265.11c-19.046 67.91-97.678 109.07-175.59 91.902s-125.58-86.139-106.44-154.03c19.046-67.91 97.677-109.06 175.59-91.901s125.58 86.139 106.44 154.03z" fill="#fff" stroke="#000" stroke-linecap="round" stroke-width="1.2"/>
    <path d="m413.14 263.87c-17.033 60.732-87.352 97.536-157.03 82.187s-112.3-77.034-95.185-137.75c17.033-60.732 87.353-97.537 157.03-82.188s112.3 77.034 95.185 137.75z" fill="url(#e)" filter="url(#a)" stroke="#000" stroke-linecap="round" stroke-width="1.2"/>
    <path d="m413.14 263.87c-17.033 60.732-87.352 97.536-157.03 82.187s-112.3-77.034-95.185-137.75c17.033-60.732 87.353-97.537 157.03-82.188s112.3 77.034 95.185 137.75z" fill="url(#d)" filter="url(#a)" stroke="#000" stroke-linecap="round" stroke-width="1.2"/>
    <path d="m413.14 263.87c-17.032 60.732-87.352 97.536-157.03 82.187s-112.3-77.034-95.185-137.75c17.032-60.732 87.353-97.537 157.03-82.188s112.3 77.034 95.185 137.75z" fill="url(#c)" filter="url(#a)" stroke="#000" stroke-linecap="round" stroke-width="1.2"/>
    <path d="m362.27 233.8c-8.7534 31.13-44.362 50.085-79.533 42.338s-56.588-39.265-47.834-70.395 44.362-50.086 79.534-42.339 56.587 39.265 47.834 70.396z" stroke="#000" stroke-linecap="round" stroke-width="1.2"/>
    <path d="m214.16 108.55c-124.73 54.995-174.93 160.92-174.93 160.92 16.433-21.198 36.246-39.938 57.587-56.42-32.849 45.441-47.581 88.105-47.581 88.105l-23.452 27.551c2.8165 6.9568 32.111 18.582 41.629-6.7796 96.602-257.41 313.21-193.74 393.85-159.26 0.09323 0.03973 0.40832 0.31328 0.50156 0.35301 0.79419 0.75108 8.0385 2.963 19.842 8.8976-1.989 15.53-12.027 108-95.574 173.02-53.078 41.312-161.65 41.417-250.72 38.27 0 0 112.41 19.698 212.79-6.9996 117.46-31.242 156.26-159.97 160.42-199.98 3.1983-1.0766 5.6569-2.5375 5.5956-2.5825-0.0976-0.07181 53.576-25.224 33.762-33.191-40.191-16.16-76.14-27.495-109.53-34.65-14.066-3.0143-27.508-5.1093-40.81-6.7032 47.656-7.6942 80.949-10.291 83.704-11.505-0.15195-0.05499-0.16226-0.30181-0.50156-0.35299-4.7928-0.72739-35.829-8.2023-84.533-10.53-73.055-3.491-133.25 10.313-182.05 31.833z" fill-rule="evenodd" stroke="#000" stroke-width="1.0623"/>
    <path d="m348.96 228.75c-4.065 14.455-21.108 23.144-38.068 19.408s-27.412-18.483-23.347-32.937c4.0642-14.455 21.108-23.144 38.067-19.408s27.413 18.482 23.348 32.937z" fill="#fff" filter="url(#f)"/>
  </g>
</svg>