<?xml version="1.0" encoding="utf-8"?>
<svg viewBox="0 0 32 32" width="64" height="64" xmlns="http://www.w3.org/2000/svg">
  <circle cx="16" cy="16" r="16" fill="#646366" transform="matrix(1, 0, 0, 1.0000000000000002, 0, 0)"/>
  <g transform="matrix(0.2941240072250367, 0, 0, 0.23886400461196902, 2.6559538912407405, 3.8069448573067204)" style="">
    <defs/>
    <g transform="translate(-330.27 -480.39)">
      <path d="m367.53 481.06c2.4391-0.73562 4.9863-0.7289 7.5023-0.43754 2.3903 11.813 2.7376 23.984 3.0159 36.015 0.30047 0.66398 0.90138 1.9919 1.2018 2.6559 5.5533-8.8083 6.2757-19.532 6.9491-29.636-0.12175-3.8726 4.8078-4.2465 7.2526-2.4997 1.7058 2.3129 2.2578 5.286 1.9034 8.1231-0.95295 7.8936-0.90914 15.891-2.4529 23.724-0.97187 7.5302-3.106 16.017 1.1235 22.951 7.3486-4.4764 12.323-15.109 22.159-13.698 3.8224 0.34272 3.6058 4.2767 3.3655 7.1418-2.7666 1.352-5.9236 2.572-7.3851 5.5143-2.9519 5.1708-7.3556 9.2667-10.838 14.06-2.8191 3.8122-5.9306 7.5774-10.264 9.7344-5.8234 2.8165-3.2026 10.434-3.2579 15.552-9.0308 5.9059-20.705 4.8161-29.922-0.0609-0.55312-5.0123 2.1007-10.61-0.93928-15.078-5.6569-9.4239-5.1304-21.15-10.619-30.623-4.9572-6.7071-12.042-11.861-15.583-19.594-1.8885-3.432 3.1749-7.4755 6.0839-4.7448 5.6821 5.213 10.535 11.287 16.136 16.608 1.3778-0.82707 2.6148-1.8092 3.7111-2.9464 0.56679-5.0836-2.4622-9.655-2.6278-14.675-0.39121-7.372-4.0442-14.642-1.7647-22.005 1.8441-0.26471 3.6954-0.49101 5.5552-0.68633 4.1997 10.305 5.3652 21.493 8.0334 32.189l1.7038 0.53141c-0.0186-7.1412-1.2324-14.249-0.63915-21.387 0.61474-5.5928-1.2882-11.261 0.59559-16.728z" fill="none" stroke="#171717" stroke-miterlimit="10" stroke-width=".125"/>
      <path d="m367.53 481.06c2.4391-0.73562 4.9863-0.7289 7.5023-0.43754 2.3903 11.813 2.7376 23.984 3.0159 36.015 0.30047 0.66398 0.90138 1.9919 1.2018 2.6559 5.5533-8.8083 6.2757-19.532 6.9491-29.636-0.12175-3.8726 4.8078-4.2465 7.2526-2.4997 1.7058 2.3129 2.2578 5.286 1.9034 8.1231-0.95295 7.8936-0.90914 15.891-2.4529 23.724-0.97187 7.5302-3.106 16.017 1.1235 22.951 7.3486-4.4764 12.323-15.109 22.159-13.698 3.8224 0.34272 3.6058 4.2767 3.3655 7.1418-2.7666 1.352-5.9236 2.572-7.3851 5.5143-2.9519 5.1708-7.3556 9.2667-10.838 14.06-2.8191 3.8122-5.9306 7.5774-10.264 9.7344-5.8234 2.8165-3.2026 10.434-3.2579 15.552-9.0308 5.9059-20.705 4.8161-29.922-0.0609-0.55312-5.0123 2.1007-10.61-0.93928-15.078-5.6569-9.4239-5.1304-21.15-10.619-30.623-4.9572-6.7071-12.042-11.861-15.583-19.594-1.8885-3.432 3.1749-7.4755 6.0839-4.7448 5.6821 5.213 10.535 11.287 16.136 16.608 1.3778-0.82707 2.6148-1.8092 3.7111-2.9464 0.56679-5.0836-2.4622-9.655-2.6278-14.675-0.39121-7.372-4.0442-14.642-1.7647-22.005 1.8441-0.26471 3.6954-0.49101 5.5552-0.68633 4.1997 10.305 5.3652 21.493 8.0334 32.189l1.7038 0.53141c-0.0186-7.1412-1.2324-14.249-0.63915-21.387 0.61474-5.5928-1.2882-11.261 0.59559-16.728z" fill="#171717"/>
      <path d="m369.42 481.7c1.486-0.0355 2.9773-0.0495 4.474-0.042 0.54188 3.7221 0.86474 7.4833 1.269 11.237-2.0818 0.0758-4.1582 0.20271-6.2254 0.3636-1.0907-3.8237-1.8262-8.0183 0.48244-11.559z" fill="none" stroke="#fff" stroke-miterlimit="10" stroke-width=".125"/>
      <path d="m369.42 481.7c1.486-0.0355 2.9773-0.0495 4.474-0.042 0.54188 3.7221 0.86474 7.4833 1.269 11.237-2.0818 0.0758-4.1582 0.20271-6.2254 0.3636-1.0907-3.8237-1.8262-8.0183 0.48244-11.559z" fill="#fff"/>
      <path d="m354.35 487.75c0.8412 0.1055 2.5236 0.31656 3.3647 0.42207 1.0365 3.6165 1.5323 7.3527 2.0042 11.091-1.7483 0.74574-3.5045 1.4748-5.2606 2.2052-1.2929-4.4152-2.9349-9.5382-0.10837-13.718z" fill="none" stroke="#fff" stroke-miterlimit="10" stroke-width=".125"/>
      <path d="m354.35 487.75c0.8412 0.1055 2.5236 0.31656 3.3647 0.42207 1.0365 3.6165 1.5323 7.3527 2.0042 11.091-1.7483 0.74574-3.5045 1.4748-5.2606 2.2052-1.2929-4.4152-2.9349-9.5382-0.10837-13.718z" fill="#fff"/>
      <path d="m388.19 487.83c6.6617-0.87911 5.9485 7.46 4.9745 11.718-2.139-0.17548-4.2711-0.33709-6.3965-0.50614-0.39199-3.7995 2e-3 -7.664 1.4219-11.212z" fill="none" stroke="#fff" stroke-miterlimit="10" stroke-width=".125"/>
      <path d="m388.19 487.83c6.6617-0.87911 5.9485 7.46 4.9745 11.718-2.139-0.17548-4.2711-0.33709-6.3965-0.50614-0.39199-3.7995 2e-3 -7.664 1.4219-11.212z" fill="#fff"/>
      <path d="m368.62 495.49c1.6174-1.9081 4.4992-1.2151 6.6981-1.7218 0.2533 3.2328 0.4971 6.4756 0.58343 9.7391-2.6906-5e-3 -5.3733 0.0439-8.051 0.22025 0.20845-2.7575 0.31744-5.5236 0.76947-8.2376z" fill="none" stroke="#fff" stroke-miterlimit="10" stroke-width=".125"/>
      <path d="m368.62 495.49c1.6174-1.9081 4.4992-1.2151 6.6981-1.7218 0.2533 3.2328 0.4971 6.4756 0.58343 9.7391-2.6906-5e-3 -5.3733 0.0439-8.051 0.22025 0.20845-2.7575 0.31744-5.5236 0.76947-8.2376z" fill="#fff"/>
      <path d="m386.81 500.41c2.2133-0.0768 4.4188 0.20191 6.4449 1.1792-0.25015 2.8658-0.61172 5.7408-1.2685 8.5628-2.2789-0.36485-4.5578-0.72042-6.8232-1.0858 0.14264-2.9583 0.50657-5.9151 1.6468-8.6563z" fill="none" stroke="#fff" stroke-miterlimit="10" stroke-width=".125"/>
      <path d="m386.81 500.41c2.2133-0.0768 4.4188 0.20191 6.4449 1.1792-0.25015 2.8658-0.61172 5.7408-1.2685 8.5628-2.2789-0.36485-4.5578-0.72042-6.8232-1.0858 0.14264-2.9583 0.50657-5.9151 1.6468-8.6563z" fill="#fff"/>
      <path d="m354.73 504c1.7355-1.0389 3.5232-1.9824 5.3808-2.7769 0.92358 2.9434 1.7487 5.9297 2.3146 8.9842-2.0147 0.67665-4.025 1.3643-6.0286 2.0719-1.0518-2.653-1.3983-5.4821-1.6668-8.2792z" fill="none" stroke="#fff" stroke-miterlimit="10" stroke-width=".125"/>
      <path d="m354.73 504c1.7355-1.0389 3.5232-1.9824 5.3808-2.7769 0.92358 2.9434 1.7487 5.9297 2.3146 8.9842-2.0147 0.67665-4.025 1.3643-6.0286 2.0719-1.0518-2.653-1.3983-5.4821-1.6668-8.2792z" fill="#fff"/>
      <path d="m368.59 505.45c2.36-0.057 4.7274-0.10088 7.0988-0.10588 0.20424 3.7416 0.20851 7.5003 0.0206 11.259-2.1735 0.37696-4.3367 0.7835-6.4986 1.1974-0.38371-4.1138-0.69743-8.2315-0.62075-12.351z" fill="none" stroke="#fff" stroke-miterlimit="10" stroke-width=".125"/>
      <path d="m368.59 505.45c2.36-0.057 4.7274-0.10088 7.0988-0.10588 0.20424 3.7416 0.20851 7.5003 0.0206 11.259-2.1735 0.37696-4.3367 0.7835-6.4986 1.1974-0.38371-4.1138-0.69743-8.2315-0.62075-12.351z" fill="#fff"/>
      <path d="m331.91 512.96c0.65235-3.3541 4.1652-1.297 5.8951-0.0315 1.9832 1.1412 2.837 3.3266 3.4019 5.4421 1.7423 0.70395 3.2796 1.7873 4.6761 3.0641-1.4799 1.6937-2.9215 3.422-4.3448 5.1803-1.3617-1.6433-2.4907-3.431-2.7395-5.5642-3.9072-0.48601-6.038-4.6603-6.8888-8.0908z" fill="none" stroke="#fff" stroke-miterlimit="10" stroke-width=".125"/>
      <path d="m331.91 512.96c0.65235-3.3541 4.1652-1.297 5.8951-0.0315 1.9832 1.1412 2.837 3.3266 3.4019 5.4421 1.7423 0.70395 3.2796 1.7873 4.6761 3.0641-1.4799 1.6937-2.9215 3.422-4.3448 5.1803-1.3617-1.6433-2.4907-3.431-2.7395-5.5642-3.9072-0.48601-6.038-4.6603-6.8888-8.0908z" fill="#fff"/>
      <path d="m384.44 511.58c2.452-0.52399 4.952-0.48268 7.4158 0.01-0.46741 2.7476-1.003 5.4891-1.5081 8.2488-2.5342-0.56951-5.0272-1.2752-7.48-2.0856 0.49879-2.0735 1.0366-4.1306 1.5723-6.1728z" fill="none" stroke="#fff" stroke-miterlimit="10" stroke-width=".125"/>
      <path d="m384.44 511.58c2.452-0.52399 4.952-0.48268 7.4158 0.01-0.46741 2.7476-1.003 5.4891-1.5081 8.2488-2.5342-0.56951-5.0272-1.2752-7.48-2.0856 0.49879-2.0735 1.0366-4.1306 1.5723-6.1728z" fill="#fff"/>
      <path d="m356.6 514.02c1.9904-0.65866 4.0265-1.1682 6.1018-1.4915 0.4029 2.5605 0.83881 5.1378 1.287 7.7131-1.6154 0.71093-3.2476 1.3832-4.8765 2.0668-0.76172-2.7974-1.573-5.5651-2.5124-8.2884z" fill="none" stroke="#fff" stroke-miterlimit="10" stroke-width=".125"/>
      <path d="m356.6 514.02c1.9904-0.65866 4.0265-1.1682 6.1018-1.4915 0.4029 2.5605 0.83881 5.1378 1.287 7.7131-1.6154 0.71093-3.2476 1.3832-4.8765 2.0668-0.76172-2.7974-1.573-5.5651-2.5124-8.2884z" fill="#fff"/>
      <path d="m350.49 531.64c4.3624-7.8764 14.367-8.4471 21.456-12.703 6.0573 0.5641 12.2 1.0367 17.726 3.869 0.0503 5.0465-0.21352 10.14 0.6967 15.145-1.1738-0.98656-2.3224-1.9811-3.4932-2.9274 0.4838 2.3314-0.25168 5.2262 1.9273 6.8795 3.0358 2.5776 3.7637 6.5827 5.2451 10.087-0.0199-2.1651-0.0844-4.3145-0.19339-6.448 1.0069 1.1787 2.0156 2.375 3.0261 3.589-0.36708-2.0332-0.79194-4.0274-1.1853-6.027 1.5509-1.4266 3.0884-2.8623 4.6538-4.2604 1.1456 1.5686 2.2788 3.1692 3.5924 4.6382-0.30256-2.2535-0.91012-4.4448-1.0058-6.6974 3.0392-5.4598 11.94-10.236 16.525-3.882-5.5259 1.893-7.564 7.6333-12.226 10.615-6.145 7.102-10.498 16.601-19.688 20.325-3.9582 1.2514-9.8965 2.1812-11.987-2.4966-2.3583-3.1758-0.73344-7.0439 0.3947-10.33 1.3071-4.0403 4.7139-6.7357 7.3729-9.841-5.8163 1.5515-8.681 7.8234-10.03 13.196-2.1884 6.9497 3.9016 13.062 9.1128 16.577 0.67975 3.8022 0.69953 10.463-4.2748 10.934-1.2458-5.1742 0.40427-10.953-2.918-15.493-4.865 0.21522-10.315 3.123-14.828 0.23502-4.8348-6.5573-7.0268-14.699-8.4597-22.602 2.2829-5.5468 9.2026-5.6846 13.816-8.3442-5.0301 0.9558-9.7028 3.1772-13.995 5.914-0.75061-3.226-3.8687-6.8912-1.2603-9.9533z" fill="none" stroke="#fff" stroke-miterlimit="10" stroke-width=".125"/>
      <path d="m350.49 531.64c4.3624-7.8764 14.367-8.4471 21.456-12.703 6.0573 0.5641 12.2 1.0367 17.726 3.869 0.0503 5.0465-0.21352 10.14 0.6967 15.145-1.1738-0.98656-2.3224-1.9811-3.4932-2.9274 0.4838 2.3314-0.25168 5.2262 1.9273 6.8795 3.0358 2.5776 3.7637 6.5827 5.2451 10.087-0.0199-2.1651-0.0844-4.3145-0.19339-6.448 1.0069 1.1787 2.0156 2.375 3.0261 3.589-0.36708-2.0332-0.79194-4.0274-1.1853-6.027 1.5509-1.4266 3.0884-2.8623 4.6538-4.2604 1.1456 1.5686 2.2788 3.1692 3.5924 4.6382-0.30256-2.2535-0.91012-4.4448-1.0058-6.6974 3.0392-5.4598 11.94-10.236 16.525-3.882-5.5259 1.893-7.564 7.6333-12.226 10.615-6.145 7.102-10.498 16.601-19.688 20.325-3.9582 1.2514-9.8965 2.1812-11.987-2.4966-2.3583-3.1758-0.73344-7.0439 0.3947-10.33 1.3071-4.0403 4.7139-6.7357 7.3729-9.841-5.8163 1.5515-8.681 7.8234-10.03 13.196-2.1884 6.9497 3.9016 13.062 9.1128 16.577 0.67975 3.8022 0.69953 10.463-4.2748 10.934-1.2458-5.1742 0.40427-10.953-2.918-15.493-4.865 0.21522-10.315 3.123-14.828 0.23502-4.8348-6.5573-7.0268-14.699-8.4597-22.602 2.2829-5.5468 9.2026-5.6846 13.816-8.3442-5.0301 0.9558-9.7028 3.1772-13.995 5.914-0.75061-3.226-3.8687-6.8912-1.2603-9.9533z" fill="#fff"/>
      <path d="m343.16 527.86c1.2498-1.8934 2.6777-3.6472 4.3455-5.1714 1.2757 1.6259 2.5604 3.2616 3.7978 4.9483-1.2524 1.6937-2.4656 3.43-3.6588 5.184-1.5022-1.6566-2.996-3.3209-4.4845-4.9609z" fill="none" stroke="#fff" stroke-miterlimit="10" stroke-width=".125"/>
      <path d="m343.16 527.86c1.2498-1.8934 2.6777-3.6472 4.3455-5.1714 1.2757 1.6259 2.5604 3.2616 3.7978 4.9483-1.2524 1.6937-2.4656 3.43-3.6588 5.184-1.5022-1.6566-2.996-3.3209-4.4845-4.9609z" fill="#fff"/>
      <path d="m383.19 534.5c0.67715 0.66335 0.67715 0.66335 0 0z" fill="none" stroke="#8f8f8f" stroke-miterlimit="10" stroke-width=".125"/>
      <path d="m383.19 534.5c0.67715 0.66335 0.67715 0.66335 0 0z" fill="#8f8f8f"/>
      <path d="m378.19 535.66c0.66693 0.66296 0.66693 0.66296 0 0z" fill="none" stroke="#8f8f8f" stroke-miterlimit="10" stroke-width=".125"/>
      <path d="m378.19 535.66c0.66693 0.66296 0.66693 0.66296 0 0z" fill="#8f8f8f"/>
      <path d="m363.94 549.01c1.3142-6.2588 7.1793-10.087 12.575-12.634-5.0806 3.268-9.7745 7.1459-12.575 12.634z" fill="none" stroke="#171717" stroke-miterlimit="10" stroke-width=".125"/>
      <path d="m363.94 549.01c1.3142-6.2588 7.1793-10.087 12.575-12.634-5.0806 3.268-9.7745 7.1459-12.575 12.634z" fill="#171717"/>
      <path d="m393.23 544.46c0.8029 0.80008 0.8029 0.80008 0 0z" fill="none" stroke="#fff" stroke-miterlimit="10" stroke-width=".125"/>
      <path d="m393.23 544.46c0.8029 0.80008 0.8029 0.80008 0 0z" fill="#fff"/>
      <path d="m362.51 571.88c4.2095-0.12682 8.3839-0.72062 12.562-1.2287 0.48455 4.5137-1.7941 8.2997-4.4351 11.742-2.7833-0.43553-5.5329-1.0386-8.1893-1.9464 0.0209-2.8679 0.0269-5.7218 0.062-8.5671z" fill="none" stroke="#fff" stroke-miterlimit="10" stroke-width=".125"/>
      <path d="m362.51 571.88c4.2095-0.12682 8.3839-0.72062 12.562-1.2287 0.48455 4.5137-1.7941 8.2997-4.4351 11.742-2.7833-0.43553-5.5329-1.0386-8.1893-1.9464 0.0209-2.8679 0.0269-5.7218 0.062-8.5671z" fill="#fff"/>
      <path d="m375.74 578.44c1.7123 0.22857 1.9969 1.0933 0.85357 2.5942-1.7054-0.24965-1.9899-1.1144-0.85357-2.5942z" fill="none" stroke="#8f8f8f" stroke-miterlimit="10" stroke-width=".125"/>
      <path d="m375.74 578.44c1.7123 0.22857 1.9969 1.0933 0.85357 2.5942-1.7054-0.24965-1.9899-1.1144-0.85357-2.5942z" fill="#8f8f8f"/>
    </g>
  </g>
</svg>