<?xml version="1.0" encoding="utf-8"?>
<svg width="400" height="150" viewBox="0 0 400 150" xmlns="http://www.w3.org/2000/svg">
  <defs>
    <linearGradient id="colorTransition" x1="0%" y1="0%" x2="100%" y2="0%">
      <stop offset="0" stop-color="#FFFF99">
        <animate attributeName="stop-color" values="#FFFF99;#99CCFF;#FFFF99" dur="3s" repeatCount="indefinite"/>
      </stop>
      <stop offset="1" stop-color="#FFFF99">
        <animate attributeName="stop-color" values="#FFFF99;#99CCFF;#FFFF99" dur="3s" repeatCount="indefinite"/>
      </stop>
    </linearGradient>
  </defs>
  <line x1="380" y1="30" x2="380" y2="120" stroke="url(#colorTransition)" stroke-width="8"/>
  <line x1="350" y1="75" x2="410" y2="75" stroke="url(#colorTransition)" stroke-width="8"/>
  <rect x="5.75" y="26.08" width="312.337" height="102.605" style="fill: rgb(216, 216, 216); stroke: rgb(0, 0, 0);"/>
  <g transform="matrix(3.312356, 0, 0, 3.312356, 4.277497, 32.538342)">
    <defs/>
    <g/>
    <g>
      <path d="M12,2C6.48,2,2,6.48,2,12s4.48,10,10,10s10-4.48,10-10S17.52,2,12,2z M9.5,16.5v-9l7,4.5L9.5,16.5z"/>
    </g>
  </g>
  <g transform="matrix(3.312356, 0, 0, 3.312356, 78.413727, 34.346367)">
    <defs/>
    <g/>
    <g>
      <g>
        <path d="M12,2C6.48,2,2,6.48,2,12s4.48,10,10,10s10-4.48,10-10S17.52,2,12,2z M11,16H9V8h2V16z M15,16h-2V8h2V16z"/>
      </g>
    </g>
  </g>
  <g transform="matrix(2.921986, 0, 0, 2.911714, 162.414823, 39.030471)" style="">
    <defs/>
    <path d="M3 5H1v16c0 1.1.9 2 2 2h16v-2H3V5zm18-4H7c-1.1 0-2 .9-2 2v14c0 1.1.9 2 2 2h14c1.1 0 2-.9 2-2V3c0-1.1-.9-2-2-2zm0 16H7V3h14v14zm-4-4h-4v-2h2c1.1 0 2-.89 2-2V7c0-1.11-.9-2-2-2h-4v2h4v2h-2c-1.1 0-2 .89-2 2v4h6v-2z"/>
  </g>
  <defs/>
  <path d="M 250.43 54.515 L 244.586 54.515 L 244.586 101.102 C 244.586 104.305 247.216 106.926 250.43 106.926 L 297.182 106.926 L 297.182 101.102 L 250.43 101.102 L 250.43 54.515 Z M 303.026 42.868 L 262.118 42.868 C 258.904 42.868 256.274 45.489 256.274 48.692 L 256.274 89.456 C 256.274 92.658 258.904 95.279 262.118 95.279 L 303.026 95.279 C 306.24 95.279 308.87 92.658 308.87 89.456 L 308.87 48.692 C 308.87 45.489 306.24 42.868 303.026 42.868 Z M 303.026 89.456 L 262.118 89.456 L 262.118 48.692 L 261.441 91.633 L 303.026 89.456 Z M 291.338 77.809 L 279.65 77.809 L 279.65 71.985 L 285.494 71.985 C 288.708 71.985 291.338 69.394 291.338 66.162 L 291.338 60.338 C 291.338 57.106 288.708 54.515 285.494 54.515 L 273.806 54.515 L 273.806 60.338 L 285.494 60.338 L 285.494 66.162 L 279.65 66.162 C 276.436 66.162 273.806 68.753 273.806 71.985 L 273.806 83.632 L 291.338 83.632 L 291.338 77.809 Z"/>
  <g transform="matrix(1.361929, 0, 0, 1.569103, 266.801448, 47.687232)" style="">
    <defs/>
    <path d="M15.05 16.29l2.86-3.07c.38-.39.72-.79 1.04-1.18.32-.39.59-.78.82-1.17.23-.39.41-.78.54-1.17s.19-.79.19-1.18c0-.53-.09-1.02-.27-1.46-.18-.44-.44-.81-.78-1.11-.34-.31-.77-.54-1.26-.71-.51-.16-1.08-.24-1.72-.24-.69 0-1.31.11-1.85.32-.54.21-1 .51-1.36.88-.37.37-.65.8-.84 1.3-.18.47-.27.97-.28 1.5h2.14c.01-.31.05-.6.13-.87.09-.29.23-.54.4-.75.18-.21.41-.37.68-.49.27-.12.6-.18.96-.18.31 0 .58.05.81.15.23.1.43.25.59.43.16.18.28.4.37.65.08.25.13.52.13.81 0 .22-.03.43-.08.65-.06.22-.15.45-.29.7-.14.25-.32.53-.56.83-.23.3-.52.65-.88 1.03l-4.17 4.55V18H21v-1.71h-5.95zM2 11v2h8v-2H2z" style="stroke: rgb(246, 246, 246); paint-order: stroke; stroke-width: 1.36471px; fill: rgb(255, 253, 253);"/>
  </g>
</svg>