<svg viewBox="0 0 500 500" xmlns="http://www.w3.org/2000/svg">
  <defs>
    <radialGradient id="a" cx="-312.66" cy="468.26" r="1.7893" gradientTransform="matrix(34.918 0 0 -34.918 10986 16407)" gradientUnits="userSpaceOnUse">
      <stop stop-color="#8bbbff" offset="0"></stop>
      <stop stop-color="#0d56ac" offset="1"></stop>
    </radialGradient>
  </defs>
  <g transform="matrix(1.471685, 0, 0, 1.471685, 37.226902, 20.984409)" style="">
    <defs></defs>
    <path d="m135.91 102.86c0 9.199-7.603 9.179-14.157 9.179h-113.33c-8.316 0-8.429-8.082-8.429-14.064v-87.885c0-7.123 5.061-10.089 11.349-10.089h114.43c15.15 0 10.138 26.749 10.138 36.307-1e-3 22.183-1e-3 44.369-1e-3 66.552" fill="url(#a)"></path>
    <path d="m133.21 103.16c0 8.044-9.498 6.651-14.789 6.651h-96.498c-4.395 0-10.01 0.955-14.339-0.237-6.726-1.854-4.878-11.987-4.878-17.19v-67.35c0-5.102-0.887-11.103 0-16.15 0-8.043 9.49-6.651 14.781-6.651h96.498c4.398 0 10.01-0.953 14.342 0.237 6.732 1.85 4.883 11.986 4.883 17.19v83.5" fill="#f4f4f4"></path>
    <path d="m126.559,2.229h-6.002c6.7,0 6.318,6.869 6.318,11.535 0,3.781-1.783,8.031 2.493,8.031 5.491,0 3.841-1.923 3.841-7.2 0-4.96.481-12.366-6.65-12.366" fill="#68a0f2" fill-rule="evenodd"></path>
    <path d="m126.88 8.554c0-8.026-10.505-6.324-15.691-6.324h-94.927c-5.811 0-13.552-0.883-13.552 7.477 0 1.067-0.025 12.117 0.022 12.117h123.57c1.319-1e-3 0.58-11.393 0.58-13.27" fill="#7fb5f7" fill-rule="evenodd"></path>
    <path d="m123.86 31.662c0 3.795-111.45 3.795-111.45 0 0-3.798 111.45-3.798 111.45 0" fill="#c6c6c6"></path>
    <path d="m12.409 102.62c-3.941 0-3.941-70.959 0-70.959s3.942 70.959 0 70.959" fill="#c6c6c6"></path>
    <path d="m9.795 100.11c0-3.793 114.6-3.793 114.6 0 1e-3 3.799-114.6 3.799-114.6 0" fill="#fff"></path>
    <path d="m124.4 29.149c4.055 0 4.055 70.958 0 70.958s-4.049-70.958 0-70.958" fill="#fff"></path>
    <path d="m130.916,7.813c0,.576-123.82.576-123.82,0 0-4.755 123.82-4.755 123.82,0" fill="#7ed8fc" fill-rule="evenodd"></path>
    <path d="m21.083,58.274c1.074,0 9.117.218 9.117-.202 0-2.18-1.331-10.313 0-11.827 1.136-1.292 10.914,0 12.784,0 4.13,0 2.369-4.154 2.369-7.759 0-.559-20.938-.275-23.305-.275-2.063-.001-.965,17.128-.965,20.063m71.086-20.064c0,1.495-.783,8.035.671,8.035h14.257c1.467,0 .671,7.829.671,9.314 0,4.551 3.894,2.715 7.943,2.715 .645,0 .238-20.064.162-20.064h-23.704m-61.969,32.103c-1.353,0-9.117-.537-9.117.456v15.393c0,1.669-1.106,7.336.965,7.336h16.133c3.211,0 7.172,1.568 7.172-2.084 0-6.617.379-5.95-6.162-5.95-2.367,0-8.991,1.485-8.991-1.398v-13.753m77.568,15.151h-13.16c-4.21,0-2.438,4.066-2.438,7.759 0-.607 22.217,1.914 23.824.275 1.23-1.255 0-9.848 0-11.593 0-1.995 1.29-10.028 0-11.592-.974-1.18-8.226-.766-8.226,1.398v13.753" fill="#ff1a00"></path>
  </g>
  <text style="white-space: pre; fill: rgb(51, 51, 51); font-family: Arial, sans-serif; font-size: 28px;" x="137.608" y="167.108" transform="matrix(0.786954, 0, 0, 0.786954, -19.137884, -22.209942)">Session<tspan x="137.60800170898438" dy="1em">​</tspan>Saved</text>
</svg>